<svg preserveAspectRatio="none" width="100%" height="100%" overflow="visible" style="display: block;" viewBox="0 0 17.9301 18.0001" fill="none" xmlns="http://www.w3.org/2000/svg">
<g id="Orion-Icon Shapes">
<path id="Vector" d="M3.70896 10.4247C3.53582 10.4952 3.53582 10.7432 3.70896 10.8137C5.3014 11.4507 6.56254 12.731 7.19097 14.347C7.25937 14.5244 7.50518 14.5244 7.57358 14.347C8.20201 12.731 9.46314 11.4528 11.0556 10.8137C11.2287 10.7432 11.2287 10.4952 11.0556 10.4247C9.46314 9.78769 8.20201 8.50732 7.57358 6.89136C7.50518 6.71395 7.25937 6.71395 7.19097 6.89136C6.56254 8.50732 5.3014 9.78555 3.70896 10.4247Z" fill="var(--fill-0, #6EB744)"/>
<path id="Vector_2" d="M8.12906 4.80299C7.90034 4.89491 7.90034 5.22195 8.12906 5.31172C10.2174 6.14749 11.8697 7.8233 12.6926 9.94158C12.7824 10.1724 13.1052 10.1724 13.195 9.94158C14.0179 7.8233 15.6723 6.14749 17.7586 5.31172C17.9873 5.21981 17.9873 4.89277 17.7586 4.80299C15.6702 3.96723 14.0179 2.29141 13.195 0.173139C13.1052 -0.0577129 12.7824 -0.0577129 12.6926 0.173139C11.8697 2.29141 10.2153 3.96723 8.12906 4.80299Z" fill="var(--fill-0, #008DD5)"/>
<path id="Vector_3" d="M0.425363 14.8494C0.303525 14.8985 0.303525 15.0738 0.425363 15.123C1.5497 15.5718 2.4389 16.4739 2.88137 17.6153C2.93053 17.7393 3.10367 17.7393 3.15069 17.6153C3.59316 16.476 4.48236 15.574 5.6067 15.123C5.72853 15.0738 5.72853 14.8985 5.6067 14.8494C4.48236 14.4005 3.59316 13.4985 3.15069 12.357C3.10153 12.233 2.92839 12.233 2.88137 12.357C2.4389 13.4963 1.5497 14.3983 0.425363 14.8494Z" fill="var(--fill-0, #13314C)"/>
<path id="Vector_4" d="M15.2279 8.58859C15.2429 8.67837 15.2557 8.77028 15.2685 8.8622C15.2685 8.87716 15.2728 8.88998 15.2728 8.90495C15.2835 8.98617 15.292 9.0674 15.2985 9.14862C15.3027 9.1871 15.3049 9.22557 15.307 9.26619C15.3113 9.32817 15.3156 9.38802 15.3198 9.45001C15.3241 9.55689 15.3284 9.66163 15.3284 9.7685C15.3284 13.6802 12.1456 16.8629 8.23398 16.8629C8.11428 16.8629 7.99244 16.8608 7.87487 16.8544C7.84922 16.8544 7.82357 16.8501 7.79792 16.8479C7.70387 16.8415 7.60982 16.8351 7.51577 16.8266C7.4944 16.8244 7.47302 16.8202 7.44951 16.818C7.35118 16.8073 7.25286 16.7945 7.15667 16.7795C7.14171 16.7774 7.12675 16.7731 7.11178 16.771C7.00704 16.7539 6.90444 16.7368 6.80184 16.7154C6.79329 16.7154 6.78688 16.7111 6.77833 16.709C6.66932 16.6855 6.55817 16.6598 6.45129 16.6321C6.45129 16.6321 6.44702 16.6321 6.44488 16.6321C6.10074 16.5423 5.76515 16.4269 5.43811 16.2858C5.08756 16.5059 4.77762 16.786 4.52539 17.1173C5.09183 17.4037 5.6882 17.6239 6.30808 17.7735C6.31876 17.7756 6.32945 17.7778 6.34014 17.7799C6.47267 17.812 6.60519 17.8398 6.73985 17.8633C6.77619 17.8697 6.81253 17.8761 6.85101 17.8825C6.96216 17.9017 7.07331 17.9167 7.18446 17.9317C7.22935 17.9381 7.27423 17.9424 7.32126 17.9488C7.43027 17.9616 7.53928 17.9701 7.65044 17.9787C7.69319 17.9808 7.73807 17.9851 7.78082 17.9872C7.93259 17.9958 8.08435 18.0001 8.23612 18.0001C12.7762 18.0001 16.4698 14.3064 16.4698 9.76636C16.4698 9.59109 16.4634 9.41795 16.4506 9.24481C16.4484 9.2042 16.4442 9.16572 16.442 9.12511C16.4292 8.96266 16.4142 8.80235 16.3907 8.64203C16.3907 8.63348 16.3907 8.62493 16.3886 8.61638C16.3629 8.43683 16.3309 8.25942 16.2945 8.08414C16.2924 8.07132 16.2903 8.05849 16.286 8.0478C16.2497 7.87466 16.2069 7.70366 16.1599 7.5348C16.1599 7.52839 16.1556 7.52198 16.1556 7.5177C15.8136 7.8426 15.5037 8.2017 15.2301 8.59073L15.2279 8.58859Z" fill="var(--fill-0, #13314C)"/>
<path id="Vector_5" d="M10.4824 1.849C10.4824 1.849 10.4695 1.84473 10.4653 1.84473C10.2964 1.7977 10.1254 1.75495 9.9544 1.71862C9.94157 1.71648 9.92661 1.7122 9.91379 1.71007C9.73851 1.67373 9.56324 1.64167 9.38582 1.61815C9.37513 1.61815 9.36658 1.61602 9.3559 1.61388C9.19772 1.5925 9.03741 1.5754 8.87709 1.56258C8.83648 1.56044 8.79801 1.55617 8.75739 1.55403C8.58425 1.54334 8.41112 1.53479 8.23584 1.53479C3.69576 1.53479 0 5.22841 0 9.76849C0 9.92239 0.00427491 10.0742 0.012825 10.2259C0.0149625 10.2708 0.0192373 10.3136 0.0235124 10.3563C0.0320624 10.4653 0.0406128 10.5765 0.0534378 10.6855C0.0577129 10.7304 0.0641254 10.7753 0.0705379 10.8223C0.0855005 10.9334 0.100463 11.0467 0.119701 11.1557C0.126113 11.1921 0.132526 11.2284 0.138938 11.2648C0.162451 11.3973 0.190238 11.5298 0.222301 11.6623C0.224439 11.6752 0.228714 11.6858 0.230851 11.6987C0.380477 12.3164 0.600641 12.9149 0.889206 13.4814C1.21625 13.227 1.49626 12.9149 1.71429 12.5579C1.71429 12.5579 1.71429 12.5579 1.71429 12.5558C1.6694 12.4489 1.62451 12.3399 1.5839 12.2309C1.5839 12.2309 1.5839 12.2309 1.5839 12.2288C1.54328 12.1176 1.50481 12.0065 1.47061 11.8953C1.43641 11.7863 1.40435 11.6752 1.37442 11.5619C1.37442 11.5576 1.37442 11.5555 1.37228 11.5512C1.3445 11.4443 1.31885 11.3353 1.29747 11.2284C1.29747 11.2199 1.2932 11.2113 1.29106 11.2028C1.26968 11.1002 1.25258 10.9976 1.23548 10.8928C1.23335 10.8779 1.22907 10.8629 1.22693 10.8479C1.21197 10.7517 1.20128 10.6534 1.1906 10.5551C1.18846 10.5337 1.18418 10.5123 1.18204 10.491C1.17349 10.3969 1.16708 10.3029 1.16067 10.2088C1.16067 10.1832 1.15639 10.1575 1.15426 10.1319C1.14784 10.0122 1.14571 9.89247 1.14571 9.77277C1.14571 5.86112 4.32847 2.67836 8.24011 2.67836C8.34699 2.67836 8.45387 2.6805 8.56074 2.68691C8.62487 2.68905 8.68899 2.69546 8.75312 2.69973C8.78946 2.70187 8.82793 2.70401 8.86427 2.70828C8.94977 2.71684 9.03313 2.72539 9.1165 2.73607C9.12932 2.73607 9.14214 2.73821 9.15283 2.74035C9.24688 2.75317 9.34093 2.766 9.43285 2.7831C9.81333 2.5095 10.166 2.19742 10.4866 1.85328L10.4824 1.849Z" fill="var(--fill-0, #008DD5)"/>
</g>
</svg>
