<svg width="1920" height="841" viewBox="0 0 1920 841" fill="none" xmlns="http://www.w3.org/2000/svg">
<g clip-path="url(#clip0_2735_61584)">
<rect width="1920" height="841" fill="white"/>
<g opacity="0.5">
<mask id="mask0_2735_61584" style="mask-type:alpha" maskUnits="userSpaceOnUse" x="0" y="0" width="1920" height="841">
<rect width="1920" height="841" rx="4" fill="#D9D9D9"/>
</mask>
<g mask="url(#mask0_2735_61584)">
<path opacity="0.1" d="M2026.99 -4.87207H-90.375V876.58H2026.99V-4.87207Z" fill="#00A6E0"/>
<mask id="mask1_2735_61584" style="mask-type:luminance" maskUnits="userSpaceOnUse" x="-91" y="-5" width="2118" height="882">
<path d="M2026.99 -4.87207H-90.375V876.58H2026.99V-4.87207Z" fill="white"/>
</mask>
<g mask="url(#mask1_2735_61584)">
<g opacity="0.3">
<path d="M1467.99 826.111C1466.18 826.111 1464.72 827.341 1464.72 828.852C1464.72 830.363 1466.19 831.588 1468 831.588C1469.81 831.588 1471.27 830.358 1471.27 828.848C1471.27 827.337 1469.8 826.111 1467.99 826.111Z" fill="#447FC1"/>
<path d="M1449.69 810.84C1447.88 810.84 1446.41 812.07 1446.41 813.58C1446.41 815.091 1447.88 816.317 1449.69 816.317C1451.5 816.317 1452.97 815.087 1452.97 813.576C1452.97 812.065 1451.49 810.84 1449.69 810.84Z" fill="#447FC1"/>
<path d="M1449.7 826.124C1447.89 826.124 1446.42 827.354 1446.42 828.865C1446.42 830.376 1447.89 831.601 1449.7 831.601C1451.51 831.601 1452.98 830.371 1452.98 828.86C1452.98 827.349 1451.51 826.124 1449.7 826.124Z" fill="#447FC1"/>
<path d="M1431.37 795.568C1429.57 795.568 1428.1 796.798 1428.1 798.309C1428.1 799.82 1429.57 801.045 1431.38 801.045C1433.19 801.045 1434.66 799.815 1434.66 798.305C1434.66 796.794 1433.18 795.568 1431.37 795.568Z" fill="#447FC1"/>
<path d="M1431.39 810.853C1429.58 810.853 1428.12 812.082 1428.12 813.593C1428.12 815.104 1429.59 816.329 1431.4 816.329C1433.2 816.329 1434.67 815.1 1434.67 813.589C1434.67 812.078 1433.2 810.853 1431.39 810.853Z" fill="#447FC1"/>
<path d="M1431.4 826.138C1429.59 826.138 1428.13 827.367 1428.13 828.878C1428.13 830.389 1429.6 831.615 1431.41 831.615C1433.22 831.615 1434.68 830.385 1434.68 828.874C1434.68 827.363 1433.21 826.138 1431.4 826.138Z" fill="#447FC1"/>
<path d="M1413.07 780.298C1411.26 780.298 1409.79 781.528 1409.79 783.038C1409.79 784.549 1411.27 785.775 1413.07 785.775C1414.88 785.775 1416.35 784.545 1416.35 783.034C1416.35 781.523 1414.88 780.298 1413.07 780.298Z" fill="#447FC1"/>
<path d="M1413.08 795.577C1411.27 795.577 1409.8 796.807 1409.8 798.318C1409.8 799.829 1411.28 801.054 1413.08 801.054C1414.89 801.054 1416.36 799.824 1416.36 798.313C1416.36 796.803 1414.89 795.577 1413.08 795.577Z" fill="#447FC1"/>
<path d="M1413.1 810.861C1411.29 810.861 1409.82 812.091 1409.82 813.602C1409.82 815.113 1411.29 816.338 1413.1 816.338C1414.91 816.338 1416.38 815.108 1416.38 813.598C1416.38 812.087 1414.9 810.861 1413.1 810.861Z" fill="#447FC1"/>
<path d="M1413.11 826.146C1411.3 826.146 1409.83 827.375 1409.83 828.886C1409.83 830.397 1411.3 831.622 1413.11 831.622C1414.92 831.622 1416.39 830.393 1416.39 828.882C1416.39 827.371 1414.91 826.146 1413.11 826.146Z" fill="#447FC1"/>
<path d="M1394.77 780.306C1392.96 780.306 1391.5 781.535 1391.5 783.046C1391.5 784.557 1392.97 785.783 1394.78 785.783C1396.59 785.783 1398.05 784.553 1398.05 783.042C1398.05 781.531 1396.58 780.306 1394.77 780.306Z" fill="#447FC1"/>
<path d="M1394.78 795.591C1392.98 795.591 1391.51 796.821 1391.51 798.331C1391.51 799.842 1392.98 801.068 1394.79 801.068C1396.6 801.068 1398.06 799.838 1398.06 798.327C1398.06 796.816 1396.59 795.591 1394.78 795.591Z" fill="#447FC1"/>
<path d="M1394.8 810.875C1392.99 810.875 1391.52 812.105 1391.52 813.616C1391.52 815.126 1393 816.352 1394.8 816.352C1396.61 816.352 1398.08 815.122 1398.08 813.611C1398.08 812.1 1396.61 810.875 1394.8 810.875Z" fill="#447FC1"/>
<path d="M1394.82 826.159C1393.01 826.159 1391.54 827.389 1391.54 828.9C1391.54 830.411 1393.01 831.636 1394.82 831.636C1396.63 831.636 1398.1 830.406 1398.1 828.895C1398.1 827.385 1396.62 826.159 1394.82 826.159Z" fill="#447FC1"/>
<path d="M1376.46 765.036C1374.65 765.036 1373.19 766.266 1373.19 767.777C1373.19 769.288 1374.66 770.513 1376.47 770.513C1378.28 770.513 1379.74 769.283 1379.74 767.772C1379.74 766.262 1378.27 765.036 1376.46 765.036Z" fill="#447FC1"/>
<path d="M1376.48 780.319C1374.67 780.319 1373.2 781.549 1373.2 783.06C1373.2 784.571 1374.67 785.796 1376.48 785.796C1378.29 785.796 1379.76 784.566 1379.76 783.056C1379.76 781.545 1378.29 780.319 1376.48 780.319Z" fill="#447FC1"/>
<path d="M1376.49 795.604C1374.68 795.604 1373.21 796.833 1373.21 798.344C1373.21 799.855 1374.68 801.08 1376.49 801.08C1378.3 801.08 1379.77 799.851 1379.77 798.34C1379.77 796.829 1378.3 795.604 1376.49 795.604Z" fill="#447FC1"/>
<path d="M1376.5 810.888C1374.7 810.888 1373.23 812.117 1373.23 813.628C1373.23 815.139 1374.7 816.365 1376.51 816.365C1378.32 816.365 1379.78 815.135 1379.78 813.624C1379.78 812.113 1378.31 810.888 1376.5 810.888Z" fill="#447FC1"/>
<path d="M1376.52 826.173C1374.71 826.173 1373.24 827.403 1373.24 828.913C1373.24 830.424 1374.72 831.65 1376.53 831.65C1378.33 831.65 1379.8 830.42 1379.8 828.909C1379.8 827.398 1378.33 826.173 1376.52 826.173Z" fill="#447FC1"/>
<path d="M1358.17 765.044C1356.36 765.044 1354.89 766.274 1354.89 767.785C1354.89 769.295 1356.36 770.521 1358.17 770.521C1359.98 770.521 1361.45 769.291 1361.45 767.78C1361.45 766.269 1359.98 765.044 1358.17 765.044Z" fill="#447FC1"/>
<path d="M1358.18 780.327C1356.37 780.327 1354.91 781.557 1354.91 783.068C1354.91 784.579 1356.38 785.804 1358.19 785.804C1360 785.804 1361.46 784.574 1361.46 783.063C1361.46 781.553 1359.99 780.327 1358.18 780.327Z" fill="#447FC1"/>
<path d="M1358.19 795.613C1356.38 795.613 1354.92 796.843 1354.92 798.354C1354.92 799.865 1356.39 801.09 1358.2 801.09C1360.01 801.09 1361.47 799.86 1361.47 798.35C1361.47 796.839 1360 795.613 1358.19 795.613Z" fill="#447FC1"/>
<path d="M1358.21 810.896C1356.4 810.896 1354.93 812.126 1354.93 813.637C1354.93 815.148 1356.41 816.373 1358.21 816.373C1360.02 816.373 1361.49 815.144 1361.49 813.633C1361.49 812.122 1360.02 810.896 1358.21 810.896Z" fill="#447FC1"/>
<path d="M1358.22 826.181C1356.42 826.181 1354.95 827.41 1354.95 828.921C1354.95 830.432 1356.42 831.658 1358.23 831.658C1360.04 831.658 1361.51 830.428 1361.51 828.917C1361.51 827.406 1360.03 826.181 1358.22 826.181Z" fill="#447FC1"/>
<path d="M1339.87 765.057C1338.06 765.057 1336.6 766.286 1336.6 767.797C1336.6 769.308 1338.07 770.534 1339.88 770.534C1341.68 770.534 1343.15 769.304 1343.15 767.793C1343.15 766.282 1341.68 765.057 1339.87 765.057Z" fill="#447FC1"/>
<path d="M1339.89 780.341C1338.08 780.341 1336.61 781.571 1336.61 783.081C1336.61 784.592 1338.08 785.818 1339.89 785.818C1341.7 785.818 1343.17 784.588 1343.17 783.077C1343.17 781.566 1341.7 780.341 1339.89 780.341Z" fill="#447FC1"/>
<path d="M1339.9 795.626C1338.09 795.626 1336.63 796.856 1336.63 798.367C1336.63 799.877 1338.1 801.103 1339.91 801.103C1341.72 801.103 1343.18 799.873 1343.18 798.362C1343.18 796.851 1341.71 795.626 1339.9 795.626Z" fill="#447FC1"/>
<path d="M1339.91 810.91C1338.1 810.91 1336.64 812.14 1336.64 813.651C1336.64 815.162 1338.11 816.387 1339.92 816.387C1341.73 816.387 1343.19 815.157 1343.19 813.646C1343.19 812.136 1341.72 810.91 1339.91 810.91Z" fill="#447FC1"/>
<path d="M1339.93 826.194C1338.12 826.194 1336.65 827.424 1336.65 828.935C1336.65 830.446 1338.13 831.671 1339.93 831.671C1341.74 831.671 1343.21 830.441 1343.21 828.931C1343.21 827.42 1341.74 826.194 1339.93 826.194Z" fill="#447FC1"/>
<path d="M1321.58 765.071C1319.77 765.071 1318.3 766.301 1318.3 767.812C1318.3 769.323 1319.77 770.548 1321.58 770.548C1323.39 770.548 1324.86 769.318 1324.86 767.808C1324.86 766.297 1323.38 765.071 1321.58 765.071Z" fill="#447FC1"/>
<path d="M1321.59 780.354C1319.78 780.354 1318.32 781.584 1318.32 783.095C1318.32 784.606 1319.79 785.831 1321.6 785.831C1323.41 785.831 1324.87 784.602 1324.87 783.091C1324.87 781.58 1323.4 780.354 1321.59 780.354Z" fill="#447FC1"/>
<path d="M1321.61 795.639C1319.8 795.639 1318.33 796.868 1318.33 798.379C1318.33 799.89 1319.8 801.116 1321.61 801.116C1323.42 801.116 1324.89 799.886 1324.89 798.375C1324.89 796.864 1323.42 795.639 1321.61 795.639Z" fill="#447FC1"/>
<path d="M1321.62 810.919C1319.81 810.919 1318.34 812.149 1318.34 813.66C1318.34 815.17 1319.81 816.396 1321.62 816.396C1323.43 816.396 1324.9 815.166 1324.9 813.655C1324.9 812.144 1323.43 810.919 1321.62 810.919Z" fill="#447FC1"/>
<path d="M1321.63 826.203C1319.82 826.203 1318.36 827.433 1318.36 828.944C1318.36 830.455 1319.83 831.68 1321.64 831.68C1323.45 831.68 1324.91 830.45 1324.91 828.939C1324.91 827.428 1323.44 826.203 1321.63 826.203Z" fill="#447FC1"/>
<path d="M1303.27 749.795C1301.46 749.795 1299.99 751.025 1299.99 752.536C1299.99 754.046 1301.47 755.272 1303.27 755.272C1305.08 755.272 1306.55 754.042 1306.55 752.531C1306.55 751.02 1305.08 749.795 1303.27 749.795Z" fill="#447FC1"/>
<path d="M1303.28 765.079C1301.47 765.079 1300 766.309 1300 767.82C1300 769.331 1301.48 770.556 1303.29 770.556C1305.09 770.556 1306.56 769.326 1306.56 767.815C1306.56 766.304 1305.09 765.079 1303.28 765.079Z" fill="#447FC1"/>
<path d="M1303.3 780.363C1301.49 780.363 1300.02 781.593 1300.02 783.104C1300.02 784.615 1301.49 785.84 1303.3 785.84C1305.11 785.84 1306.58 784.61 1306.58 783.1C1306.58 781.589 1305.1 780.363 1303.3 780.363Z" fill="#447FC1"/>
<path d="M1303.31 795.648C1301.5 795.648 1300.04 796.878 1300.04 798.389C1300.04 799.9 1301.51 801.125 1303.32 801.125C1305.13 801.125 1306.59 799.896 1306.59 798.385C1306.59 796.874 1305.12 795.648 1303.31 795.648Z" fill="#447FC1"/>
<path d="M1303.32 810.932C1301.51 810.932 1300.05 812.161 1300.05 813.672C1300.05 815.183 1301.52 816.409 1303.33 816.409C1305.14 816.409 1306.6 815.179 1306.6 813.668C1306.6 812.157 1305.13 810.932 1303.32 810.932Z" fill="#447FC1"/>
<path d="M1303.34 826.216C1301.53 826.216 1300.06 827.446 1300.06 828.956C1300.06 830.467 1301.53 831.693 1303.34 831.693C1305.15 831.693 1306.62 830.463 1306.62 828.952C1306.62 827.441 1305.15 826.216 1303.34 826.216Z" fill="#447FC1"/>
<path d="M1284.97 749.808C1283.17 749.808 1281.7 751.037 1281.7 752.548C1281.7 754.059 1283.17 755.285 1284.98 755.285C1286.79 755.285 1288.25 754.055 1288.25 752.544C1288.25 751.033 1286.78 749.808 1284.97 749.808Z" fill="#447FC1"/>
<path d="M1284.99 765.092C1283.18 765.092 1281.71 766.322 1281.71 767.832C1281.71 769.343 1283.19 770.569 1284.99 770.569C1286.8 770.569 1288.27 769.339 1288.27 767.828C1288.27 766.317 1286.8 765.092 1284.99 765.092Z" fill="#447FC1"/>
<path d="M1285 780.376C1283.19 780.376 1281.73 781.606 1281.73 783.117C1281.73 784.627 1283.2 785.853 1285.01 785.853C1286.81 785.853 1288.28 784.623 1288.28 783.112C1288.28 781.601 1286.81 780.376 1285 780.376Z" fill="#447FC1"/>
<path d="M1285.02 795.66C1283.21 795.66 1281.74 796.89 1281.74 798.401C1281.74 799.912 1283.21 801.137 1285.02 801.137C1286.83 801.137 1288.3 799.907 1288.3 798.396C1288.3 796.886 1286.83 795.66 1285.02 795.66Z" fill="#447FC1"/>
<path d="M1285.03 810.945C1283.22 810.945 1281.75 812.175 1281.75 813.686C1281.75 815.197 1283.22 816.422 1285.03 816.422C1286.84 816.422 1288.31 815.192 1288.31 813.682C1288.31 812.171 1286.83 810.945 1285.03 810.945Z" fill="#447FC1"/>
<path d="M1285.04 826.229C1283.23 826.229 1281.77 827.459 1281.77 828.97C1281.77 830.481 1283.24 831.706 1285.05 831.706C1286.86 831.706 1288.32 830.477 1288.32 828.966C1288.32 827.455 1286.85 826.229 1285.04 826.229Z" fill="#447FC1"/>
<path d="M1266.68 749.821C1264.87 749.821 1263.4 751.051 1263.4 752.562C1263.4 754.073 1264.88 755.298 1266.68 755.298C1268.49 755.298 1269.96 754.068 1269.96 752.558C1269.96 751.047 1268.49 749.821 1266.68 749.821Z" fill="#447FC1"/>
<path d="M1266.69 765.106C1264.89 765.106 1263.42 766.336 1263.42 767.847C1263.42 769.358 1264.89 770.583 1266.7 770.583C1268.51 770.583 1269.97 769.354 1269.97 767.843C1269.97 766.332 1268.5 765.106 1266.69 765.106Z" fill="#447FC1"/>
<path d="M1266.7 780.385C1264.9 780.385 1263.43 781.615 1263.43 783.125C1263.43 784.636 1264.9 785.862 1266.71 785.862C1268.52 785.862 1269.99 784.632 1269.99 783.121C1269.99 781.61 1268.51 780.385 1266.7 780.385Z" fill="#447FC1"/>
<path d="M1266.72 795.67C1264.91 795.67 1263.45 796.9 1263.45 798.411C1263.45 799.921 1264.92 801.147 1266.73 801.147C1268.53 801.147 1270 799.917 1270 798.406C1270 796.895 1268.53 795.67 1266.72 795.67Z" fill="#447FC1"/>
<path d="M1266.73 810.953C1264.92 810.953 1263.46 812.183 1263.46 813.694C1263.46 815.205 1264.93 816.43 1266.74 816.43C1268.55 816.43 1270.01 815.2 1270.01 813.689C1270.01 812.178 1268.54 810.953 1266.73 810.953Z" fill="#447FC1"/>
<path d="M1266.75 826.238C1264.94 826.238 1263.47 827.468 1263.47 828.979C1263.47 830.49 1264.94 831.715 1266.75 831.715C1268.56 831.715 1270.03 830.485 1270.03 828.975C1270.03 827.464 1268.56 826.238 1266.75 826.238Z" fill="#447FC1"/>
<path d="M1248.4 765.114C1246.59 765.114 1245.12 766.344 1245.12 767.855C1245.12 769.366 1246.6 770.591 1248.4 770.591C1250.21 770.591 1251.68 769.361 1251.68 767.85C1251.68 766.34 1250.21 765.114 1248.4 765.114Z" fill="#447FC1"/>
<path d="M1248.41 780.398C1246.6 780.398 1245.13 781.628 1245.13 783.139C1245.13 784.65 1246.61 785.875 1248.41 785.875C1250.22 785.875 1251.69 784.646 1251.69 783.135C1251.69 781.624 1250.22 780.398 1248.41 780.398Z" fill="#447FC1"/>
<path d="M1248.43 795.684C1246.62 795.684 1245.15 796.913 1245.15 798.424C1245.15 799.935 1246.62 801.16 1248.43 801.16C1250.24 801.16 1251.71 799.931 1251.71 798.42C1251.71 796.909 1250.23 795.684 1248.43 795.684Z" fill="#447FC1"/>
<path d="M1248.44 810.967C1246.63 810.967 1245.17 812.197 1245.17 813.707C1245.17 815.218 1246.64 816.444 1248.45 816.444C1250.25 816.444 1251.72 815.214 1251.72 813.703C1251.72 812.192 1250.25 810.967 1248.44 810.967Z" fill="#447FC1"/>
<path d="M1248.45 826.251C1246.64 826.251 1245.18 827.481 1245.18 828.992C1245.18 830.502 1246.65 831.728 1248.46 831.728C1250.26 831.728 1251.73 830.498 1251.73 828.987C1251.73 827.476 1250.26 826.251 1248.45 826.251Z" fill="#447FC1"/>
<path d="M1230.1 765.127C1228.29 765.127 1226.83 766.357 1226.83 767.868C1226.83 769.378 1228.3 770.604 1230.11 770.604C1231.92 770.604 1233.38 769.374 1233.38 767.863C1233.38 766.352 1231.91 765.127 1230.1 765.127Z" fill="#447FC1"/>
<path d="M1230.11 780.411C1228.31 780.411 1226.84 781.641 1226.84 783.152C1226.84 784.663 1228.31 785.888 1230.12 785.888C1231.93 785.888 1233.39 784.658 1233.39 783.147C1233.39 781.637 1231.92 780.411 1230.11 780.411Z" fill="#447FC1"/>
<path d="M1230.13 795.695C1228.32 795.695 1226.85 796.925 1226.85 798.436C1226.85 799.947 1228.33 801.172 1230.13 801.172C1231.94 801.172 1233.41 799.942 1233.41 798.432C1233.41 796.921 1231.94 795.695 1230.13 795.695Z" fill="#447FC1"/>
<path d="M1230.15 810.98C1228.34 810.98 1226.87 812.21 1226.87 813.721C1226.87 815.232 1228.34 816.457 1230.15 816.457C1231.96 816.457 1233.43 815.228 1233.43 813.717C1233.43 812.206 1231.95 810.98 1230.15 810.98Z" fill="#447FC1"/>
<path d="M1230.16 826.26C1228.35 826.26 1226.88 827.49 1226.88 829C1226.88 830.511 1228.35 831.737 1230.16 831.737C1231.97 831.737 1233.44 830.507 1233.44 828.996C1233.44 827.485 1231.96 826.26 1230.16 826.26Z" fill="#447FC1"/>
<path d="M1211.81 765.137C1210 765.137 1208.53 766.366 1208.53 767.877C1208.53 769.388 1210 770.614 1211.81 770.614C1213.62 770.614 1215.09 769.384 1215.09 767.873C1215.09 766.362 1213.62 765.137 1211.81 765.137Z" fill="#447FC1"/>
<path d="M1211.82 780.42C1210.01 780.42 1208.54 781.65 1208.54 783.161C1208.54 784.671 1210.02 785.897 1211.82 785.897C1213.63 785.897 1215.1 784.667 1215.1 783.156C1215.1 781.645 1213.63 780.42 1211.82 780.42Z" fill="#447FC1"/>
<path d="M1211.83 795.704C1210.03 795.704 1208.56 796.934 1208.56 798.445C1208.56 799.956 1210.03 801.181 1211.84 801.181C1213.65 801.181 1215.11 799.951 1215.11 798.44C1215.11 796.93 1213.64 795.704 1211.83 795.704Z" fill="#447FC1"/>
<path d="M1211.85 810.989C1210.04 810.989 1208.57 812.219 1208.57 813.73C1208.57 815.241 1210.05 816.466 1211.85 816.466C1213.66 816.466 1215.13 815.236 1215.13 813.725C1215.13 812.215 1213.66 810.989 1211.85 810.989Z" fill="#447FC1"/>
<path d="M1211.86 826.273C1210.05 826.273 1208.58 827.503 1208.58 829.014C1208.58 830.525 1210.06 831.75 1211.87 831.75C1213.67 831.75 1215.14 830.521 1215.14 829.01C1215.14 827.499 1213.67 826.273 1211.86 826.273Z" fill="#447FC1"/>
<path d="M1193.51 765.149C1191.7 765.149 1190.24 766.379 1190.24 767.89C1190.24 769.401 1191.71 770.626 1193.52 770.626C1195.33 770.626 1196.79 769.397 1196.79 767.886C1196.79 766.375 1195.32 765.149 1193.51 765.149Z" fill="#447FC1"/>
<path d="M1193.53 780.434C1191.72 780.434 1190.25 781.663 1190.25 783.174C1190.25 784.685 1191.72 785.91 1193.53 785.91C1195.34 785.91 1196.81 784.681 1196.81 783.17C1196.81 781.659 1195.34 780.434 1193.53 780.434Z" fill="#447FC1"/>
<path d="M1193.54 795.717C1191.73 795.717 1190.26 796.947 1190.26 798.457C1190.26 799.968 1191.74 801.194 1193.54 801.194C1195.35 801.194 1196.82 799.964 1196.82 798.453C1196.82 796.942 1195.35 795.717 1193.54 795.717Z" fill="#447FC1"/>
<path d="M1193.55 811.003C1191.75 811.003 1190.28 812.233 1190.28 813.744C1190.28 815.254 1191.75 816.48 1193.56 816.48C1195.37 816.48 1196.83 815.25 1196.83 813.739C1196.83 812.228 1195.36 811.003 1193.55 811.003Z" fill="#447FC1"/>
<path d="M1193.56 826.286C1191.76 826.286 1190.29 827.516 1190.29 829.027C1190.29 830.538 1191.76 831.763 1193.57 831.763C1195.38 831.763 1196.85 830.533 1196.85 829.022C1196.85 827.512 1195.37 826.286 1193.56 826.286Z" fill="#447FC1"/>
<path d="M1175.23 780.446C1173.42 780.446 1171.96 781.676 1171.96 783.187C1171.96 784.698 1173.43 785.923 1175.24 785.923C1177.05 785.923 1178.51 784.693 1178.51 783.183C1178.51 781.672 1177.04 780.446 1175.23 780.446Z" fill="#447FC1"/>
<path d="M1175.24 795.73C1173.43 795.73 1171.97 796.96 1171.97 798.471C1171.97 799.982 1173.44 801.207 1175.25 801.207C1177.06 801.207 1178.52 799.978 1178.52 798.467C1178.52 796.956 1177.05 795.73 1175.24 795.73Z" fill="#447FC1"/>
<path d="M1175.26 811.011C1173.45 811.011 1171.98 812.241 1171.98 813.751C1171.98 815.262 1173.46 816.488 1175.26 816.488C1177.07 816.488 1178.54 815.258 1178.54 813.747C1178.54 812.236 1177.07 811.011 1175.26 811.011Z" fill="#447FC1"/>
<path d="M1175.27 826.295C1173.47 826.295 1172 827.525 1172 829.036C1172 830.546 1173.47 831.772 1175.28 831.772C1177.09 831.772 1178.56 830.542 1178.56 829.031C1178.56 827.52 1177.08 826.295 1175.27 826.295Z" fill="#447FC1"/>
<path d="M1156.94 780.455C1155.13 780.455 1153.66 781.685 1153.66 783.196C1153.66 784.707 1155.13 785.932 1156.94 785.932C1158.75 785.932 1160.22 784.702 1160.22 783.191C1160.22 781.68 1158.75 780.455 1156.94 780.455Z" fill="#447FC1"/>
<path d="M1156.95 795.739C1155.14 795.739 1153.67 796.969 1153.67 798.48C1153.67 799.991 1155.14 801.216 1156.95 801.216C1158.76 801.216 1160.23 799.986 1160.23 798.475C1160.23 796.965 1158.76 795.739 1156.95 795.739Z" fill="#447FC1"/>
<path d="M1156.96 811.024C1155.15 811.024 1153.69 812.254 1153.69 813.765C1153.69 815.276 1155.16 816.501 1156.97 816.501C1158.78 816.501 1160.24 815.272 1160.24 813.761C1160.24 812.25 1158.77 811.024 1156.96 811.024Z" fill="#447FC1"/>
<path d="M1156.98 826.309C1155.17 826.309 1153.7 827.538 1153.7 829.049C1153.7 830.56 1155.18 831.785 1156.98 831.785C1158.79 831.785 1160.26 830.556 1160.26 829.045C1160.26 827.534 1158.79 826.309 1156.98 826.309Z" fill="#447FC1"/>
<path d="M1138.65 795.753C1136.84 795.753 1135.38 796.983 1135.38 798.494C1135.38 800.004 1136.85 801.23 1138.66 801.23C1140.47 801.23 1141.93 800 1141.93 798.489C1141.93 796.978 1140.46 795.753 1138.65 795.753Z" fill="#447FC1"/>
<path d="M1138.67 811.036C1136.86 811.036 1135.39 812.266 1135.39 813.777C1135.39 815.288 1136.86 816.513 1138.67 816.513C1140.48 816.513 1141.95 815.283 1141.95 813.772C1141.95 812.262 1140.48 811.036 1138.67 811.036Z" fill="#447FC1"/>
<path d="M1138.68 826.321C1136.87 826.321 1135.41 827.551 1135.41 829.062C1135.41 830.573 1136.88 831.798 1138.69 831.798C1140.5 831.798 1141.96 830.568 1141.96 829.058C1141.96 827.547 1140.49 826.321 1138.68 826.321Z" fill="#447FC1"/>
<path d="M1120.37 811.046C1118.56 811.046 1117.1 812.276 1117.1 813.787C1117.1 815.297 1118.57 816.523 1120.38 816.523C1122.19 816.523 1123.65 815.293 1123.65 813.782C1123.65 812.271 1122.18 811.046 1120.37 811.046Z" fill="#447FC1"/>
<path d="M1120.39 826.33C1118.58 826.33 1117.11 827.56 1117.11 829.071C1117.11 830.582 1118.58 831.807 1120.39 831.807C1122.2 831.807 1123.67 830.577 1123.67 829.066C1123.67 827.555 1122.2 826.33 1120.39 826.33Z" fill="#447FC1"/>
<path d="M1102.09 826.344C1100.28 826.344 1098.82 827.574 1098.82 829.084C1098.82 830.595 1100.29 831.821 1102.1 831.821C1103.91 831.821 1105.37 830.591 1105.37 829.08C1105.37 827.569 1103.9 826.344 1102.09 826.344Z" fill="#447FC1"/>
</g>
<g opacity="0.25">
<path d="M293.793 -270.951L-33.8805 2.79584C-33.9541 3.50735 -34.033 4.21885 -34.0908 4.93036L296.354 -271.127C295.497 -271.079 294.645 -271.013 293.798 -270.951H293.793Z" fill="#447FC1"/>
<path d="M324.018 -272.089L-35.2469 28.046C-35.2574 28.7048 -35.2521 29.3548 -35.2469 30.0048L326.363 -272.089C325.585 -272.093 324.796 -272.093 324.018 -272.089Z" fill="#447FC1"/>
<path d="M351.886 -271.275L-34.2754 51.3288C-34.2281 51.9349 -34.1702 52.5454 -34.1072 53.1471L354.063 -271.135C353.343 -271.188 352.612 -271.236 351.886 -271.275Z" fill="#447FC1"/>
<path d="M377.89 -268.892L-31.4199 73.0464C-31.3253 73.6129 -31.2201 74.1839 -31.1097 74.7461L379.924 -268.632C379.251 -268.725 378.568 -268.813 377.89 -268.892Z" fill="#447FC1"/>
<path d="M402.294 -265.18L-26.9775 93.4349C-26.8408 93.9707 -26.7042 94.5065 -26.5517 95.038L404.208 -264.824C403.577 -264.951 402.93 -265.07 402.289 -265.18H402.294Z" fill="#447FC1"/>
<path d="M425.316 -260.322L-21.1572 112.672C-20.9942 113.181 -20.8102 113.686 -20.6368 114.196L427.141 -259.883C426.531 -260.032 425.926 -260.182 425.316 -260.318V-260.322Z" fill="#447FC1"/>
<path d="M447.134 -254.441L-14.123 130.899C-13.9233 131.377 -13.713 131.861 -13.5079 132.344L448.869 -253.928C448.291 -254.099 447.713 -254.275 447.14 -254.441H447.134Z" fill="#447FC1"/>
<path d="M467.832 -247.633L-5.97461 148.191C-5.74329 148.647 -5.5067 149.104 -5.26487 149.557L469.472 -247.045C468.926 -247.247 468.384 -247.444 467.837 -247.638L467.832 -247.633Z" fill="#447FC1"/>
<path d="M487.511 -239.97L3.20508 164.629C3.46794 165.064 3.72555 165.495 3.99368 165.934L489.077 -239.311C488.557 -239.531 488.042 -239.746 487.516 -239.965L487.511 -239.97Z" fill="#447FC1"/>
<path d="M506.215 -231.497L13.3457 180.257C13.6191 180.674 13.9135 181.087 14.2079 181.495L507.703 -230.777C507.209 -231.023 506.72 -231.269 506.221 -231.497H506.215Z" fill="#447FC1"/>
<path d="M524.017 -222.269L24.3867 195.124C24.6916 195.515 25.0071 195.91 25.3278 196.301L525.421 -221.487C524.953 -221.751 524.485 -222.019 524.012 -222.273L524.017 -222.269Z" fill="#447FC1"/>
<path d="M540.941 -212.304L36.3154 209.266C36.6414 209.648 36.9779 210.017 37.3196 210.386L542.286 -211.465C541.84 -211.75 541.403 -212.027 540.946 -212.304H540.941Z" fill="#447FC1"/>
<path d="M557.028 -201.648L49.0752 222.706C49.4274 223.058 49.7902 223.413 50.1529 223.765L558.295 -200.744C557.875 -201.047 557.449 -201.35 557.028 -201.644V-201.648Z" fill="#447FC1"/>
<path d="M572.29 -190.291L62.6709 235.456C63.0442 235.798 63.4227 236.132 63.8012 236.47L573.505 -189.342C573.1 -189.659 572.7 -189.975 572.29 -190.287V-190.291Z" fill="#447FC1"/>
<path d="M78.2633 248.482L587.888 -177.261C587.515 -177.603 587.136 -177.937 586.758 -178.275L77.0488 247.537C77.4536 247.854 77.8532 248.17 78.2633 248.482Z" fill="#447FC1"/>
<path d="M93.5199 259.836L601.473 -164.514C601.121 -164.865 600.758 -165.221 600.395 -165.572L92.2529 258.936C92.6735 259.239 93.0994 259.542 93.5199 259.836Z" fill="#447FC1"/>
<path d="M109.613 270.501L614.238 -151.069C613.912 -151.452 613.576 -151.821 613.234 -152.189L108.272 269.662C108.719 269.947 109.156 270.224 109.613 270.501Z" fill="#447FC1"/>
<path d="M126.532 280.461L626.162 -136.936C625.857 -137.327 625.542 -137.722 625.221 -138.113L125.128 279.675C125.596 279.939 126.064 280.202 126.537 280.461H126.532Z" fill="#447FC1"/>
<path d="M144.338 289.694L637.213 -122.06C636.94 -122.478 636.645 -122.89 636.351 -123.299L142.855 288.973C143.35 289.219 143.839 289.465 144.338 289.694Z" fill="#447FC1"/>
<path d="M163.049 298.157L647.349 -106.429C647.097 -106.864 646.834 -107.303 646.571 -107.738L161.482 297.507C162.003 297.726 162.529 297.946 163.049 298.157Z" fill="#447FC1"/>
<path d="M182.716 305.825L656.523 -89.9993C656.297 -90.4561 656.055 -90.9129 655.813 -91.3652L181.081 305.232C181.628 305.434 182.175 305.636 182.716 305.825Z" fill="#447FC1"/>
<path d="M203.42 312.637L664.677 -72.703C664.477 -73.1817 664.267 -73.6648 664.057 -74.1436L201.695 312.119C202.268 312.295 202.847 312.47 203.42 312.637Z" fill="#447FC1"/>
<path d="M225.233 318.51L671.711 -54.4799C671.548 -54.9893 671.364 -55.4944 671.191 -56.0039L223.408 318.075C224.018 318.22 224.623 318.374 225.233 318.51Z" fill="#447FC1"/>
<path d="M248.27 323.371L677.526 -35.2348C677.39 -35.7706 677.253 -36.3065 677.101 -36.8379L246.352 323.015C246.988 323.143 247.629 323.261 248.27 323.371Z" fill="#447FC1"/>
<path d="M272.675 327.083L681.968 -14.8467C681.874 -15.4132 681.769 -15.9842 681.663 -16.5508L270.635 326.828C271.313 326.916 271.996 327.004 272.675 327.083Z" fill="#447FC1"/>
<path d="M298.667 329.472L684.828 6.86811C684.776 6.2664 684.723 5.65151 684.66 5.0498L296.49 329.332C297.21 329.385 297.947 329.428 298.667 329.472Z" fill="#447FC1"/>
<path d="M326.541 330.284L685.801 30.1493C685.806 29.4993 685.806 28.8405 685.801 28.1904L324.191 330.284C324.969 330.288 325.753 330.293 326.536 330.284H326.541Z" fill="#447FC1"/>
<path d="M356.749 329.142L684.439 55.3904C684.523 54.6745 684.591 53.9586 684.654 53.2471L354.184 329.326C355.046 329.274 355.897 329.208 356.749 329.146V329.142Z" fill="#447FC1"/>
<path d="M390.071 325.414L679.976 83.2237C680.144 82.4332 680.318 81.647 680.475 80.8477L387.227 325.831C388.183 325.7 389.124 325.559 390.071 325.414Z" fill="#447FC1"/>
<path d="M427.923 317.891L670.959 114.855C671.28 113.937 671.606 113.024 671.911 112.102L424.627 318.686C425.731 318.431 426.825 318.163 427.923 317.891Z" fill="#447FC1"/>
<path d="M473.873 303.608L653.857 153.246C654.499 152.073 655.119 150.901 655.729 149.724L469.656 305.171C471.065 304.662 472.469 304.143 473.873 303.608Z" fill="#447FC1"/>
</g>
<path opacity="0.05" d="M2209.18 340.378C2243.18 303.41 2266.31 261.246 2282.08 217.027C2285.8 205.867 2288.95 194.557 2291.51 183.147C2299.21 148.915 2301.61 113.735 2298.81 78.9853C2297.51 65.7872 2295.14 52.7077 2291.62 39.8522C2284.58 14.1368 2272.9 -10.7046 2255.88 -33.8945C2245.55 -45.9727 2234.49 -57.1021 2222.73 -67.3619C2140.46 -139.172 2024.09 -168.234 1911.02 -180.123C1893.5 -182.28 1875.97 -184.014 1858.44 -185.336C1770.82 -191.942 1683.22 -188.169 1596.39 -174.453C1579.63 -172.318 1562.9 -170.131 1546.2 -167.988C1462.65 -157.28 1379.52 -147.705 1294.75 -151.461C1280.62 -151.632 1266.62 -151.711 1252.69 -151.601C1222.2 -150.723 1192.76 -149.844 1162.26 -149.844C1091.81 -149.844 1022.42 -154.236 952.085 -155.282C940.929 -154.97 929.71 -154.092 918.323 -152.48C835.257 -141.06 758.5 -122.614 676.344 -115.982C659.604 -114.765 643.464 -113.773 627.366 -112.398C579.819 -109.073 532.577 -102.292 485.771 -90.5738C469.799 -86.4629 454.253 -81.1968 439.348 -74.8767C394.629 -55.9075 355.657 -27.4119 328.182 8.05384C320.548 18.5464 314.834 29.7549 311.553 41.6793C308.272 53.6037 307.426 66.244 309.529 79.4201C312.158 94.7923 319.255 108.408 328.981 120.705C343.176 139.152 363.154 153.206 383.132 169.018C408.367 187.464 433.865 205.032 458.59 223.119C466.834 229.149 474.988 235.232 482.989 241.421C534.543 282.332 574.499 329.766 623.917 374.565C691.211 435.175 774.277 478.217 865.129 505.215C883.209 510.345 901.626 514.592 920.315 517.869C976.385 527.698 1034.93 528.805 1094.36 518.861C1110.52 517.17 1126.66 515.071 1142.81 512.642C1175.12 507.789 1207.48 501.64 1240.08 494.907C1318.94 479.096 1392.54 457.136 1472.4 454.878C1488.74 454.694 1505.22 455.379 1521.87 457.136C1605.99 465.92 1686.95 480.853 1770.94 486.053C1789.46 487.094 1807.86 487.687 1826.16 487.744C1917.61 487.998 2006.84 474.937 2086.99 430.366C2102.31 422.469 2117.09 413.856 2131.25 404.602C2145.42 395.348 2158.95 385.449 2171.76 374.978C2184.99 364.068 2197.51 352.517 2209.18 340.386V340.378Z" fill="#447FC1"/>
<path opacity="0.1" d="M1997.66 263.245C2019.83 232.847 2033.25 199.248 2040.88 164.595C2042.61 155.868 2043.88 147.067 2044.71 138.225C2047.19 111.711 2045.55 84.8313 2040.01 58.6416C2037.73 48.7111 2034.64 38.9433 2030.71 29.4213C2022.83 10.3818 2011.52 -7.67827 1996.32 -24.1177C1987.29 -32.5767 1977.8 -40.2716 1967.87 -47.2549C1898.35 -96.1296 1807.14 -110.21 1720.13 -111.48C1706.61 -111.915 1693.14 -112.029 1679.7 -111.831C1612.52 -110.834 1546.38 -101.962 1481.81 -85.5887C1469.3 -82.8173 1456.82 -80.0108 1444.34 -77.2394C1381.97 -63.3781 1319.79 -50.4084 1255.07 -47.4438C1244.32 -46.6049 1233.68 -45.7046 1223.12 -44.668C1200.05 -41.9098 1177.79 -39.2219 1154.63 -37.1313C1101.15 -32.3001 1048.03 -30.8726 994.528 -26.8407C986.09 -25.8394 977.657 -24.4032 969.166 -22.396C907.225 -8.02963 850.761 11.2426 789.04 21.9153C776.448 23.9884 764.293 25.8462 752.207 27.9939C716.436 33.7782 681.233 42.167 646.85 54.2759C635.126 58.4922 623.844 63.5563 613.145 69.3801C581.054 86.8516 554.268 111.157 536.898 139.969C532.135 148.459 528.896 157.361 527.577 166.642C526.257 175.918 526.857 185.572 529.748 195.432C533.255 206.921 539.984 216.773 548.575 225.442C561.166 238.474 577.716 247.772 594.434 258.409C615.406 270.685 636.493 282.271 657.044 294.305C663.894 298.315 670.687 302.378 677.369 306.528C720.531 334.053 755.529 367.323 797.451 397.949C854.499 439.348 921.798 466.328 993.424 480.594C1007.66 483.247 1022.06 485.21 1036.57 486.413C1080.1 490.032 1124.65 486.852 1168.8 475.227C1180.9 472.837 1192.94 470.132 1204.97 467.18C1229.03 461.278 1252.99 454.391 1277.08 447.043C1335.4 429.629 1389.12 407.905 1449.53 400.716C1461.93 399.455 1474.5 398.845 1487.31 399.034C1552.04 399.934 1614.97 405.714 1679.25 403.9C1693.41 403.421 1707.44 402.604 1721.34 401.396C1790.79 395.318 1857.25 379.278 1913.72 339.943C1924.57 332.894 1934.95 325.344 1944.79 317.346C1954.63 309.348 1963.93 300.907 1972.63 292.074C1981.6 282.882 1989.97 273.254 1997.64 263.24L1997.66 263.245Z" fill="#447FC1"/>
<path opacity="0.15" d="M1821.98 310.305C1841.27 290.954 1854.82 268.607 1864.45 245.022C1866.75 239.062 1868.73 233.018 1870.4 226.905C1875.43 208.568 1877.61 189.621 1876.98 170.818C1876.61 163.672 1875.66 156.57 1874.09 149.569C1870.94 135.568 1865.26 121.952 1856.67 109.136C1851.39 102.434 1845.71 96.2325 1839.62 90.4877C1797.04 50.2786 1734.97 32.5391 1674.25 24.124C1664.85 22.6527 1655.43 21.4053 1646.01 20.382C1598.88 15.2696 1551.51 15.7572 1504.3 21.6249C1495.2 22.4814 1486.12 23.3686 1477.05 24.2294C1431.69 28.5336 1386.58 32.2317 1340.92 28.7093C1333.3 28.3667 1325.75 28.0768 1318.23 27.888C1301.75 27.8221 1285.84 27.7782 1269.38 27.2379C1231.36 25.995 1194.02 22.3979 1156.09 20.5928C1150.06 20.5664 1143.98 20.8387 1137.79 21.5063C1092.67 26.2014 1050.78 34.801 1006.27 36.9312C997.209 37.2913 988.472 37.5417 979.75 37.9984C954.005 38.9515 928.333 41.7756 902.777 47.2744C894.055 49.2113 885.528 51.7763 877.326 54.9254C852.712 64.3727 830.957 79.064 815.232 97.7214C810.847 103.251 807.478 109.198 805.406 115.575C803.335 121.952 802.557 128.76 803.356 135.906C804.386 144.251 807.872 151.722 812.808 158.529C820.001 168.736 830.431 176.673 840.809 185.562C853.963 195.963 867.28 205.897 880.165 216.096C884.461 219.495 888.709 222.925 892.872 226.404C919.658 249.396 940.025 275.7 965.56 300.752C1000.34 334.654 1044.08 359.351 1092.44 375.527C1102.06 378.614 1111.89 381.232 1121.9 383.331C1151.91 389.63 1183.48 391.259 1215.8 386.942C1224.57 386.314 1233.33 385.466 1242.11 384.443C1259.67 382.396 1277.29 379.647 1295.06 376.59C1338.02 369.448 1378.3 358.899 1421.46 359.092C1430.29 359.281 1439.16 359.939 1448.1 361.182C1493.28 367.41 1536.59 376.897 1581.79 381.188C1591.76 382.075 1601.68 382.721 1611.55 383.077C1660.9 384.829 1709.39 379.357 1753.78 356.72C1762.24 352.728 1770.44 348.34 1778.32 343.597C1786.19 338.853 1793.75 333.75 1800.92 328.321C1808.34 322.664 1815.39 316.652 1822 310.314L1821.98 310.305Z" fill="#447FC1"/>
<path opacity="0.05" d="M1332.91 796.197C1366.9 833.164 1390.03 875.328 1405.8 919.547C1409.53 930.707 1412.67 942.017 1415.23 953.427C1422.93 987.659 1425.33 1022.84 1422.53 1057.59C1421.23 1070.79 1418.87 1083.87 1415.35 1096.72C1408.3 1122.44 1396.62 1147.28 1379.61 1170.47C1369.27 1182.55 1358.21 1193.68 1346.45 1203.94C1264.18 1275.75 1147.81 1304.81 1034.75 1316.7C1017.22 1318.85 999.696 1320.59 982.168 1321.91C894.539 1328.52 806.941 1324.74 720.111 1311.03C703.356 1308.89 686.627 1306.71 669.919 1304.56C586.375 1293.85 503.246 1284.28 418.477 1288.03C404.345 1288.21 390.345 1288.29 376.413 1288.18C345.92 1287.3 316.479 1286.42 285.987 1286.42C215.538 1286.42 146.142 1290.81 75.8091 1291.86C64.653 1291.54 53.4339 1290.67 42.0465 1289.05C-41.0194 1277.63 -117.776 1259.19 -199.933 1252.56C-216.672 1251.34 -232.812 1250.35 -248.91 1248.97C-296.457 1245.65 -343.7 1238.87 -390.506 1227.15C-406.478 1223.04 -422.024 1217.77 -436.928 1211.45C-481.647 1192.48 -520.62 1163.99 -548.094 1128.52C-555.728 1118.03 -561.443 1106.82 -564.723 1094.89C-568.004 1082.97 -568.85 1070.33 -566.747 1057.15C-564.119 1041.78 -557.021 1028.17 -547.295 1015.87C-533.1 997.422 -513.123 983.368 -493.145 967.556C-467.91 949.11 -442.411 931.542 -417.686 913.455C-409.443 907.425 -401.289 901.342 -393.287 895.154C-341.734 854.242 -301.778 806.808 -252.359 762.009C-185.065 701.399 -101.999 658.357 -11.1472 631.359C6.93279 626.229 25.3492 621.982 44.039 618.705C100.108 608.876 158.649 607.769 218.083 617.713C234.239 619.404 250.384 621.503 266.535 623.932C298.846 628.785 331.205 634.934 363.801 641.667C442.661 657.478 516.263 679.439 596.127 681.696C612.467 681.881 628.944 681.195 645.594 679.439C729.711 670.654 810.674 655.722 894.665 650.521C913.186 649.48 931.582 648.888 949.888 648.83C1041.33 648.576 1130.56 661.638 1210.71 706.208C1226.03 714.105 1240.82 722.718 1254.98 731.972C1269.14 741.226 1282.67 751.125 1295.48 761.596C1308.71 772.506 1321.23 784.057 1332.91 796.188V796.197Z" fill="#447FC1"/>
<path opacity="0.1" d="M1121.38 873.334C1143.56 903.731 1156.97 937.33 1164.6 971.983C1166.33 980.71 1167.61 989.512 1168.43 998.353C1170.92 1024.87 1169.27 1051.75 1163.74 1077.94C1161.45 1087.87 1158.37 1097.64 1154.43 1107.16C1146.55 1126.2 1135.25 1144.26 1120.05 1160.7C1111.01 1169.16 1101.52 1176.85 1091.59 1183.83C1022.07 1232.71 930.862 1246.79 843.853 1248.06C830.337 1248.49 816.862 1248.61 803.424 1248.41C736.246 1247.41 670.109 1238.54 605.533 1222.17C593.021 1219.4 580.54 1216.59 568.064 1213.82C505.691 1199.96 443.518 1186.99 378.79 1184.02C368.044 1183.18 357.408 1182.28 346.841 1181.25C323.777 1178.49 301.512 1175.8 278.359 1173.71C224.871 1168.88 171.756 1167.45 118.252 1163.42C109.814 1162.42 101.381 1160.98 92.8906 1158.97C30.9487 1144.61 -25.5151 1125.34 -87.2362 1114.66C-99.8275 1112.59 -111.982 1110.73 -124.069 1108.58C-159.84 1102.8 -195.043 1094.41 -229.426 1082.3C-241.15 1078.09 -252.432 1073.02 -263.131 1067.2C-295.222 1049.73 -322.008 1025.42 -339.378 996.609C-344.141 988.12 -347.38 979.217 -348.699 969.936C-350.019 960.66 -349.419 951.007 -346.528 941.147C-343.021 929.657 -336.292 919.806 -327.701 911.136C-315.11 898.105 -298.56 888.807 -281.842 878.169C-260.87 865.893 -239.783 854.307 -219.232 842.273C-212.382 838.263 -205.589 834.201 -198.907 830.05C-155.744 802.525 -120.746 769.255 -78.8244 738.63C-21.7771 697.23 45.522 670.25 117.148 655.985C131.38 653.332 145.779 651.369 160.29 650.165C203.826 646.546 248.376 649.726 292.522 661.352C304.624 663.741 316.669 666.446 328.698 669.398C352.75 675.301 376.718 682.188 400.802 689.535C459.122 706.95 512.841 728.673 573.258 735.863C585.65 737.123 598.22 737.734 611.032 737.545C675.761 736.644 738.696 730.865 802.972 732.678C817.135 733.157 831.162 733.974 845.062 735.182C914.512 741.261 980.975 757.3 1037.44 796.635C1048.3 803.685 1058.68 811.235 1068.51 819.232C1078.36 827.23 1087.66 835.672 1096.35 844.504C1105.33 853.697 1113.7 863.324 1121.37 873.338L1121.38 873.334Z" fill="#447FC1"/>
<path opacity="0.15" d="M1109.53 774.654C1131.93 797.137 1147.68 823.098 1158.87 850.5C1161.53 857.422 1163.84 864.449 1165.78 871.551C1171.62 892.857 1174.16 914.87 1173.42 936.716C1173 945.017 1171.9 953.265 1170.07 961.403C1166.41 977.672 1159.82 993.487 1149.83 1008.38C1143.7 1016.17 1137.1 1023.37 1130.03 1030.05C1080.55 1076.76 1008.44 1097.37 937.891 1107.15C926.966 1108.86 916.026 1110.31 905.08 1111.5C850.33 1117.44 795.291 1116.87 740.441 1110.05C729.869 1109.06 719.317 1108.03 708.782 1107.03C656.082 1102.03 603.677 1097.73 550.63 1101.83C541.772 1102.22 532.997 1102.56 524.26 1102.78C505.113 1102.85 486.628 1102.91 467.507 1103.53C423.335 1104.98 379.951 1109.16 335.879 1111.26C328.876 1111.29 321.816 1110.97 314.624 1110.19C262.203 1104.74 213.53 1094.75 161.824 1092.27C151.294 1091.86 141.142 1091.56 131.006 1091.03C101.092 1089.92 71.2722 1086.64 41.5787 1080.25C31.4426 1078 21.5431 1075.02 12.0062 1071.36C-16.5936 1060.39 -41.8656 1043.32 -60.1401 1021.64C-65.2345 1015.22 -69.1459 1008.31 -71.5538 1000.9C-73.9617 993.492 -74.8659 985.586 -73.9354 977.281C-72.7367 967.587 -68.6886 958.904 -62.9528 950.994C-54.5936 939.136 -42.4807 929.913 -30.4204 919.591C-15.1374 907.509 0.329715 895.966 15.3026 884.121C20.2918 880.173 25.2284 876.189 30.0652 872.144C61.1886 845.432 84.8466 814.872 114.514 785.766C154.927 746.382 205.744 717.689 261.919 698.891C273.106 695.303 284.525 692.264 296.149 689.826C331.016 682.513 367.691 680.616 405.25 685.632C415.428 686.361 425.611 687.345 435.816 688.535C456.219 690.915 476.691 694.104 497.326 697.661C547.239 705.958 594.035 718.216 644.179 717.992C654.431 717.773 664.741 717.004 675.129 715.563C727.613 708.33 777.942 697.306 830.452 692.321C842.034 691.289 853.553 690.542 865.03 690.129C922.355 688.091 978.693 694.451 1030.26 720.75C1040.1 725.388 1049.63 730.483 1058.77 735.995C1067.93 741.507 1076.7 747.436 1085.04 753.739C1093.66 760.309 1101.85 767.293 1109.53 774.663L1109.53 774.654Z" fill="#447FC1"/>
</g>
</g>
</g>
</g>
<defs>
<clipPath id="clip0_2735_61584">
<rect width="1920" height="841" fill="white"/>
</clipPath>
</defs>
</svg>
